<svg xmlns="http://www.w3.org/2000/svg" version="1.1" xmlns:xlink="http://www.w3.org/1999/xlink" xmlns:svgjs="http://svgjs.dev/svgjs" width="1440" height="560" preserveAspectRatio="none" viewBox="0 0 1440 560"><g mask="url(&quot;#SvgjsMask1354&quot;)" fill="none"><rect width="1440" height="560" x="0" y="0" fill="rgba(245, 245, 245, 0.58)"></rect><g mask="url(&quot;#SvgjsMask1355&quot;)"><path d="M708 276L732 252M804 276L828 252L852 252L876 252M204 252L228 276L252 276L276 276L300 276L324 276L348 276L372 276L396 276L420 276L444 276L468 276L492 276M828 276L852 300L876 300L900 300L924 300L948 300L972 300L996 324L1020 324L1044 324L1068 348M516 252L540 276L564 276L588 276L612 276L636 300L660 300M780 276L804 300L828 324M84 276L108 276L132 276M36 276L60 300L84 300L108 300L132 300M180 252L204 276L228 300M-12 276L12 276L36 276L60 276L84 276L108 252L132 252L156 252L180 252L204 252L228 252L252 252L276 252L300 252L324 252L348 252L372 252L396 252L420 252L444 252L468 252L492 252L516 252L540 252L564 252L588 252L612 252L636 276L660 276L684 276L708 276L732 276L756 276L780 276L804 276L828 276L852 276" stroke="rgba(2, 2, 2, 1)" stroke-width="4"></path><path d="M846 276 a6 6 0 1 0 12 0 a6 6 0 1 0 -12 0zM726 252 a6 6 0 1 0 12 0 a6 6 0 1 0 -12 0zM870 252 a6 6 0 1 0 12 0 a6 6 0 1 0 -12 0zM486 276 a6 6 0 1 0 12 0 a6 6 0 1 0 -12 0zM1062 348 a6 6 0 1 0 12 0 a6 6 0 1 0 -12 0zM654 300 a6 6 0 1 0 12 0 a6 6 0 1 0 -12 0zM822 324 a6 6 0 1 0 12 0 a6 6 0 1 0 -12 0zM126 276 a6 6 0 1 0 12 0 a6 6 0 1 0 -12 0zM126 300 a6 6 0 1 0 12 0 a6 6 0 1 0 -12 0zM222 300 a6 6 0 1 0 12 0 a6 6 0 1 0 -12 0z" fill="rgba(2, 2, 2, 1)"></path><path d="M732 228L756 204L780 204L804 204L828 204L852 204L876 204L900 204L924 204L948 204L972 204L996 204L1020 204L1044 180M1044 204L1068 228L1092 228L1116 228L1140 252L1164 252M660 228L684 204L708 204L732 204L756 180L780 180L804 180L828 180L852 180L876 180L900 180M924 228L948 252L972 252L996 252L1020 252L1044 252L1068 252L1092 252L1116 252M108 228L132 204L156 204L180 204L204 204L228 204L252 204L276 204L300 204L324 204L348 204L372 204M468 228L492 204M1092 204L1116 180L1140 180L1164 180L1188 180L1212 180M516 228L540 204L564 204L588 204L612 204L636 204L660 204L684 180L708 180M444 228L468 204L492 180L516 156L540 156L564 156L588 156L612 156L636 156L660 156L684 156L708 156L732 156L756 156L780 156L804 156L828 156L852 156L876 156L900 156L924 156M60 228L84 204L108 180L132 180L156 180M1140 204L1164 228M36 252L60 252L84 252M-12 252L12 252L36 252L60 228L84 228L108 228L132 228L156 228L180 228L204 228L228 228L252 228L276 228L300 228L324 228L348 228L372 228L396 228L420 228L444 228L468 228L492 228L516 228L540 228L564 228L588 228L612 228L636 228L660 228L684 228L708 228L732 228L756 228L780 228L804 228L828 228L852 228L876 228L900 228L924 228L948 228L972 228L996 228L1020 228L1044 204L1068 204L1092 204L1116 204L1140 204L1164 204" stroke="rgba(183, 212, 228, 1)" stroke-width="4"></path><path d="M1158 204 a6 6 0 1 0 12 0 a6 6 0 1 0 -12 0zM1038 180 a6 6 0 1 0 12 0 a6 6 0 1 0 -12 0zM1158 252 a6 6 0 1 0 12 0 a6 6 0 1 0 -12 0zM894 180 a6 6 0 1 0 12 0 a6 6 0 1 0 -12 0zM1110 252 a6 6 0 1 0 12 0 a6 6 0 1 0 -12 0zM366 204 a6 6 0 1 0 12 0 a6 6 0 1 0 -12 0zM486 204 a6 6 0 1 0 12 0 a6 6 0 1 0 -12 0zM1206 180 a6 6 0 1 0 12 0 a6 6 0 1 0 -12 0zM702 180 a6 6 0 1 0 12 0 a6 6 0 1 0 -12 0zM918 156 a6 6 0 1 0 12 0 a6 6 0 1 0 -12 0zM150 180 a6 6 0 1 0 12 0 a6 6 0 1 0 -12 0zM1158 228 a6 6 0 1 0 12 0 a6 6 0 1 0 -12 0zM78 252 a6 6 0 1 0 12 0 a6 6 0 1 0 -12 0z" fill="rgba(183, 212, 228, 1)"></path><path d="M-12 324L12 324L36 324L60 324" stroke="rgba(183, 212, 228, 1)" stroke-width="4"></path><path d="M54 324 a6 6 0 1 0 12 0 a6 6 0 1 0 -12 0z" fill="rgba(183, 212, 228, 1)"></path><path d="M-12 228L12 228" stroke="rgba(183, 212, 228, 1)" stroke-width="4"></path><path d="M6 228 a6 6 0 1 0 12 0 a6 6 0 1 0 -12 0z" fill="rgba(183, 212, 228, 1)"></path><path d="M708 420L732 396M468 396L492 372L516 348L540 348L564 348L588 348L612 348M540 396L564 372L588 372L612 372L636 372L660 372L684 372L708 372L732 372L756 372M396 396L420 372L444 372L468 372L492 348L516 324L540 324L564 324L588 324L612 324L636 324L660 324L684 324L708 324L732 324L756 324L780 324L804 324M756 420L780 396L804 372M516 396L540 372M252 348L276 324L300 324L324 324L348 324M348 372L372 348L396 348L420 348L444 348L468 348L492 324L516 300L540 300L564 300L588 300L612 300M972 372L996 348L1020 348L1044 348M852 396L876 372L900 348L924 348L948 348L972 348M996 372L1020 396L1044 396L1068 396L1092 396L1116 396L1140 396L1164 396L1188 396L1212 396M-12 348L12 348L36 348L60 348L84 348L108 348L132 348L156 348L180 348L204 348L228 348L252 348L276 348L300 372L324 372L348 372L372 372L396 396L420 396L444 396L468 396L492 396L516 396L540 396L564 396L588 396L612 396L636 396L660 396L684 396L708 420L732 420L756 420L780 420L804 396L828 396L852 396L876 396L900 372L924 372L948 372L972 372L996 372L1020 372L1044 372" stroke="rgba(183, 212, 228, 1)" stroke-width="4"></path><path d="M1038 372 a6 6 0 1 0 12 0 a6 6 0 1 0 -12 0zM726 396 a6 6 0 1 0 12 0 a6 6 0 1 0 -12 0zM606 348 a6 6 0 1 0 12 0 a6 6 0 1 0 -12 0zM750 372 a6 6 0 1 0 12 0 a6 6 0 1 0 -12 0zM798 324 a6 6 0 1 0 12 0 a6 6 0 1 0 -12 0zM798 372 a6 6 0 1 0 12 0 a6 6 0 1 0 -12 0zM534 372 a6 6 0 1 0 12 0 a6 6 0 1 0 -12 0zM342 324 a6 6 0 1 0 12 0 a6 6 0 1 0 -12 0zM606 300 a6 6 0 1 0 12 0 a6 6 0 1 0 -12 0zM1038 348 a6 6 0 1 0 12 0 a6 6 0 1 0 -12 0zM966 348 a6 6 0 1 0 12 0 a6 6 0 1 0 -12 0zM1206 396 a6 6 0 1 0 12 0 a6 6 0 1 0 -12 0z" fill="rgba(183, 212, 228, 1)"></path><path d="M36 204L60 204M-12 204L12 204L36 204L60 180L84 156" stroke="rgba(2, 2, 2, 1)" stroke-width="4"></path><path d="M78 156 a6 6 0 1 0 12 0 a6 6 0 1 0 -12 0zM54 204 a6 6 0 1 0 12 0 a6 6 0 1 0 -12 0z" fill="rgba(2, 2, 2, 1)"></path><path d="M420 420L444 444M612 444L636 420L660 420L684 420M564 420L588 420M588 444L612 468L636 468M396 420L420 444M708 444L732 468L756 468M660 444L684 468L708 468L732 492L756 492M468 420L492 444M-12 372L12 372L36 372L60 372L84 372L108 372L132 372L156 372L180 372L204 372L228 372L252 372L276 372L300 396L324 396L348 396L372 420L396 420L420 420L444 420L468 420L492 420L516 420L540 420L564 420L588 444L612 444L636 444L660 444L684 444L708 444L732 444L756 444L780 444" stroke="rgba(2, 2, 2, 1)" stroke-width="4"></path><path d="M774 444 a6 6 0 1 0 12 0 a6 6 0 1 0 -12 0zM438 444 a6 6 0 1 0 12 0 a6 6 0 1 0 -12 0zM678 420 a6 6 0 1 0 12 0 a6 6 0 1 0 -12 0zM582 420 a6 6 0 1 0 12 0 a6 6 0 1 0 -12 0zM630 468 a6 6 0 1 0 12 0 a6 6 0 1 0 -12 0zM414 444 a6 6 0 1 0 12 0 a6 6 0 1 0 -12 0zM750 468 a6 6 0 1 0 12 0 a6 6 0 1 0 -12 0zM750 492 a6 6 0 1 0 12 0 a6 6 0 1 0 -12 0zM486 444 a6 6 0 1 0 12 0 a6 6 0 1 0 -12 0z" fill="rgba(2, 2, 2, 1)"></path><path d="M204 132L228 156L252 156L276 156L300 156L324 156M420 132L444 132L468 132L492 132M348 132L372 156L396 156M396 132L420 108M156 132L180 156L204 156L228 180L252 180L276 180L300 180M-12 180L12 180L36 180L60 156L84 132L108 132L132 132L156 132L180 132L204 132L228 132L252 132L276 132L300 132L324 132L348 132L372 132L396 132L420 132L444 108L468 108" stroke="rgba(183, 212, 228, 1)" stroke-width="4"></path><path d="M462 108 a6 6 0 1 0 12 0 a6 6 0 1 0 -12 0zM318 156 a6 6 0 1 0 12 0 a6 6 0 1 0 -12 0zM486 132 a6 6 0 1 0 12 0 a6 6 0 1 0 -12 0zM390 156 a6 6 0 1 0 12 0 a6 6 0 1 0 -12 0zM414 108 a6 6 0 1 0 12 0 a6 6 0 1 0 -12 0zM294 180 a6 6 0 1 0 12 0 a6 6 0 1 0 -12 0z" fill="rgba(183, 212, 228, 1)"></path><path d="M156 396L180 420L204 420L228 420L252 444M84 396L108 420L132 420M60 396L84 420L108 444M-12 396L12 396L36 396L60 396L84 396L108 396L132 396L156 396L180 396L204 396L228 396L252 396L276 396L300 420" stroke="rgba(2, 2, 2, 1)" stroke-width="4"></path><path d="M294 420 a6 6 0 1 0 12 0 a6 6 0 1 0 -12 0zM246 444 a6 6 0 1 0 12 0 a6 6 0 1 0 -12 0zM126 420 a6 6 0 1 0 12 0 a6 6 0 1 0 -12 0zM102 444 a6 6 0 1 0 12 0 a6 6 0 1 0 -12 0z" fill="rgba(2, 2, 2, 1)"></path><path d="M324 108L348 84L372 60M204 108L228 84L252 84L276 84M492 84L516 108L540 108L564 108L588 108L612 108L636 108M180 108L204 84L228 60L252 60L276 60M420 84L444 60L468 60M396 84L420 60M-12 156L12 156L36 156L60 132L84 108L108 108L132 108L156 108L180 108L204 108L228 108L252 108L276 108L300 108L324 108L348 108L372 84L396 84L420 84L444 84L468 84L492 84L516 84L540 84L564 84L588 84" stroke="rgba(2, 2, 2, 1)" stroke-width="4"></path><path d="M582 84 a6 6 0 1 0 12 0 a6 6 0 1 0 -12 0zM366 60 a6 6 0 1 0 12 0 a6 6 0 1 0 -12 0zM270 84 a6 6 0 1 0 12 0 a6 6 0 1 0 -12 0zM630 108 a6 6 0 1 0 12 0 a6 6 0 1 0 -12 0zM270 60 a6 6 0 1 0 12 0 a6 6 0 1 0 -12 0zM462 60 a6 6 0 1 0 12 0 a6 6 0 1 0 -12 0zM414 60 a6 6 0 1 0 12 0 a6 6 0 1 0 -12 0z" fill="rgba(2, 2, 2, 1)"></path></g></g><defs><mask id="SvgjsMask1354"><rect width="1440" height="560" fill="#ffffff"></rect></mask><mask id="SvgjsMask1355"><rect width="1440" height="560" fill="white"></rect><path d="M849 276 a3 3 0 1 0 6 0 a3 3 0 1 0 -6 0zM729 252 a3 3 0 1 0 6 0 a3 3 0 1 0 -6 0zM873 252 a3 3 0 1 0 6 0 a3 3 0 1 0 -6 0zM489 276 a3 3 0 1 0 6 0 a3 3 0 1 0 -6 0zM1065 348 a3 3 0 1 0 6 0 a3 3 0 1 0 -6 0zM657 300 a3 3 0 1 0 6 0 a3 3 0 1 0 -6 0zM825 324 a3 3 0 1 0 6 0 a3 3 0 1 0 -6 0zM129 276 a3 3 0 1 0 6 0 a3 3 0 1 0 -6 0zM129 300 a3 3 0 1 0 6 0 a3 3 0 1 0 -6 0zM225 300 a3 3 0 1 0 6 0 a3 3 0 1 0 -6 0z" fill="black"></path><path d="M1161 204 a3 3 0 1 0 6 0 a3 3 0 1 0 -6 0zM1041 180 a3 3 0 1 0 6 0 a3 3 0 1 0 -6 0zM1161 252 a3 3 0 1 0 6 0 a3 3 0 1 0 -6 0zM897 180 a3 3 0 1 0 6 0 a3 3 0 1 0 -6 0zM1113 252 a3 3 0 1 0 6 0 a3 3 0 1 0 -6 0zM369 204 a3 3 0 1 0 6 0 a3 3 0 1 0 -6 0zM489 204 a3 3 0 1 0 6 0 a3 3 0 1 0 -6 0zM1209 180 a3 3 0 1 0 6 0 a3 3 0 1 0 -6 0zM705 180 a3 3 0 1 0 6 0 a3 3 0 1 0 -6 0zM921 156 a3 3 0 1 0 6 0 a3 3 0 1 0 -6 0zM153 180 a3 3 0 1 0 6 0 a3 3 0 1 0 -6 0zM1161 228 a3 3 0 1 0 6 0 a3 3 0 1 0 -6 0zM81 252 a3 3 0 1 0 6 0 a3 3 0 1 0 -6 0z" fill="black"></path><path d="M57 324 a3 3 0 1 0 6 0 a3 3 0 1 0 -6 0z" fill="black"></path><path d="M9 228 a3 3 0 1 0 6 0 a3 3 0 1 0 -6 0z" fill="black"></path><path d="M1041 372 a3 3 0 1 0 6 0 a3 3 0 1 0 -6 0zM729 396 a3 3 0 1 0 6 0 a3 3 0 1 0 -6 0zM609 348 a3 3 0 1 0 6 0 a3 3 0 1 0 -6 0zM753 372 a3 3 0 1 0 6 0 a3 3 0 1 0 -6 0zM801 324 a3 3 0 1 0 6 0 a3 3 0 1 0 -6 0zM801 372 a3 3 0 1 0 6 0 a3 3 0 1 0 -6 0zM537 372 a3 3 0 1 0 6 0 a3 3 0 1 0 -6 0zM345 324 a3 3 0 1 0 6 0 a3 3 0 1 0 -6 0zM609 300 a3 3 0 1 0 6 0 a3 3 0 1 0 -6 0zM1041 348 a3 3 0 1 0 6 0 a3 3 0 1 0 -6 0zM969 348 a3 3 0 1 0 6 0 a3 3 0 1 0 -6 0zM1209 396 a3 3 0 1 0 6 0 a3 3 0 1 0 -6 0z" fill="black"></path><path d="M81 156 a3 3 0 1 0 6 0 a3 3 0 1 0 -6 0zM57 204 a3 3 0 1 0 6 0 a3 3 0 1 0 -6 0z" fill="black"></path><path d="M777 444 a3 3 0 1 0 6 0 a3 3 0 1 0 -6 0zM441 444 a3 3 0 1 0 6 0 a3 3 0 1 0 -6 0zM681 420 a3 3 0 1 0 6 0 a3 3 0 1 0 -6 0zM585 420 a3 3 0 1 0 6 0 a3 3 0 1 0 -6 0zM633 468 a3 3 0 1 0 6 0 a3 3 0 1 0 -6 0zM417 444 a3 3 0 1 0 6 0 a3 3 0 1 0 -6 0zM753 468 a3 3 0 1 0 6 0 a3 3 0 1 0 -6 0zM753 492 a3 3 0 1 0 6 0 a3 3 0 1 0 -6 0zM489 444 a3 3 0 1 0 6 0 a3 3 0 1 0 -6 0z" fill="black"></path><path d="M465 108 a3 3 0 1 0 6 0 a3 3 0 1 0 -6 0zM321 156 a3 3 0 1 0 6 0 a3 3 0 1 0 -6 0zM489 132 a3 3 0 1 0 6 0 a3 3 0 1 0 -6 0zM393 156 a3 3 0 1 0 6 0 a3 3 0 1 0 -6 0zM417 108 a3 3 0 1 0 6 0 a3 3 0 1 0 -6 0zM297 180 a3 3 0 1 0 6 0 a3 3 0 1 0 -6 0z" fill="black"></path><path d="M297 420 a3 3 0 1 0 6 0 a3 3 0 1 0 -6 0zM249 444 a3 3 0 1 0 6 0 a3 3 0 1 0 -6 0zM129 420 a3 3 0 1 0 6 0 a3 3 0 1 0 -6 0zM105 444 a3 3 0 1 0 6 0 a3 3 0 1 0 -6 0z" fill="black"></path><path d="M585 84 a3 3 0 1 0 6 0 a3 3 0 1 0 -6 0zM369 60 a3 3 0 1 0 6 0 a3 3 0 1 0 -6 0zM273 84 a3 3 0 1 0 6 0 a3 3 0 1 0 -6 0zM633 108 a3 3 0 1 0 6 0 a3 3 0 1 0 -6 0zM273 60 a3 3 0 1 0 6 0 a3 3 0 1 0 -6 0zM465 60 a3 3 0 1 0 6 0 a3 3 0 1 0 -6 0zM417 60 a3 3 0 1 0 6 0 a3 3 0 1 0 -6 0z" fill="black"></path></mask></defs></svg>